<?xml version="1.0" ?><svg data-name="Layer 1" id="Layer_1" viewBox="0 0 60 60" xmlns="http://www.w3.org/2000/svg" xmlns:xlink="http://www.w3.org/1999/xlink"><defs><style>.cls-1,.cls-2{fill:none;}.cls-1{clip-rule:evenodd;}.cls-3{clip-path:url(#clip-path);}.cls-4{fill:#646464;}.cls-5{clip-path:url(#clip-path-2);}.cls-6{clip-path:url(#clip-path-3);}</style><clipPath id="clip-path"><path class="cls-1" d="M13.43,32a7.48,7.48,0,0,1,5-1.9c2.79-.07,5.59.16,8.38,0.18,3.08,0,6.16-.07,9.24-0.13,1.77,0,3.54-.15,5.31-0.18,4.78-.08,7.66,4.39,8.1,7.63a13.69,13.69,0,0,1-.64,6.21,8.44,8.44,0,0,1-5.64,5.54A31.66,31.66,0,0,1,33.87,51c-1.31,0-2.63,0-3.94,0a41.61,41.61,0,0,1-12-1.24c-5-1.4-6.8-4.18-7.28-9.27C10.3,37.3,10.95,34.33,13.43,32ZM6.65,46.78c3.3,5.17,8.22,7.44,13.89,7.93,4.83,0.41,9.7.3,14.55,0.31a27.42,27.42,0,0,0,10.18-1.66,16.2,16.2,0,0,0,10.07-11,30.13,30.13,0,0,0,1.2-9.62,16.53,16.53,0,0,0-3-9.43,3.78,3.78,0,0,1-1-2.86A23.69,23.69,0,0,0,52.21,15a25,25,0,0,0-1.79-6.56,21.66,21.66,0,0,0-6.49,2c-2.12,1.22-4.17,2.55-6.27,3.81a1.34,1.34,0,0,1-.85.18,40.16,40.16,0,0,0-13.47,0,1.73,1.73,0,0,1-1.07-.24c-1.11-.67-2.16-1.43-3.28-2.09A24.7,24.7,0,0,0,9.6,8.48C9.51,8.69,9.43,8.85,9.36,9a30.68,30.68,0,0,0-1.86,8.7,15.93,15.93,0,0,0,0,3.27,1.59,1.59,0,0,1-.35,1.4,16,16,0,0,0-2.78,5.05,23.44,23.44,0,0,0-.57,10.87A21,21,0,0,0,6.65,46.78Z"/></clipPath><clipPath id="clip-path-2"><ellipse class="cls-2" cx="21" cy="40.02" rx="4" ry="5"/></clipPath><clipPath id="clip-path-3"><ellipse class="cls-2" cx="40" cy="40.02" rx="4" ry="5"/></clipPath></defs><title/><g class="cls-3"><rect class="cls-4" height="56.56" width="63.11" x="-1.55" y="3.46"/></g><g class="cls-5"><rect class="cls-4" height="20" width="18" x="12" y="30.02"/></g><g class="cls-6"><rect class="cls-4" height="20" width="18" x="31" y="30.02"/></g></svg>
