<?xml version="1.0" ?><svg data-name="Layer 1" id="Layer_1" viewBox="0 0 60 60" xmlns="http://www.w3.org/2000/svg" xmlns:xlink="http://www.w3.org/1999/xlink"><defs><style>.cls-1,.cls-11,.cls-15,.cls-16,.cls-17,.cls-18,.cls-2,.cls-5,.cls-8{fill:none;}.cls-1{clip-rule:evenodd;}.cls-3{clip-path:url(#clip-path);}.cls-4{fill:#ffffff;}.cls-5{stroke:#646464;}.cls-11,.cls-5,.cls-8{stroke-miterlimit:10;stroke-width:2px;}.cls-6{clip-path:url(#clip-path-2);}.cls-7{fill:#646464;}.cls-8{stroke:#646464;}.cls-9{clip-path:url(#clip-path-3);}.cls-10{fill:#646464;}.cls-11{stroke:#646464;}.cls-12{clip-path:url(#clip-path-4);}.cls-13{fill:#618287;}.cls-14{clip-path:url(#clip-path-5);}.cls-15{stroke:#646464;}.cls-15,.cls-16,.cls-17,.cls-18{stroke-linecap:square;stroke-linejoin:round;stroke-width:3px;}.cls-16{stroke:#646464;}.cls-17{stroke:#646464;}.cls-18{stroke:#646464;}</style><clipPath id="clip-path"><path class="cls-1" d="M53,42.79A9.24,9.24,0,0,1,43.8,52H16.2A9.24,9.24,0,0,1,7,42.79V16.25A9.24,9.24,0,0,1,16.2,7H43.8A9.24,9.24,0,0,1,53,16.25V42.79Z"/></clipPath><clipPath id="clip-path-2"><path class="cls-1" d="M7,24V16.25A9.24,9.24,0,0,1,16.2,7H43.8A9.24,9.24,0,0,1,53,16.25V24H7Z"/></clipPath><clipPath id="clip-path-3"><rect class="cls-2" height="8" rx="1.6" ry="1.6" width="8" x="40" y="12.02"/></clipPath><clipPath id="clip-path-4"><circle class="cls-2" cx="30" cy="35.02" r="13"/></clipPath><clipPath id="clip-path-5"><circle class="cls-2" cx="30" cy="35.02" r="8"/></clipPath></defs><title/><g class="cls-3"><rect class="cls-4" height="55" width="56" x="2" y="2.02"/></g><path class="cls-5" d="M53,42.79A9.24,9.24,0,0,1,43.8,52H16.2A9.24,9.24,0,0,1,7,42.79V16.25A9.24,9.24,0,0,1,16.2,7H43.8A9.24,9.24,0,0,1,53,16.25V42.79Z"/><g class="cls-6"><rect class="cls-7" height="27" width="56" x="2" y="2.02"/></g><path class="cls-8" d="M7,24V16.25A9.24,9.24,0,0,1,16.2,7H43.8A9.24,9.24,0,0,1,53,16.25V24H7Z"/><g class="cls-9"><rect class="cls-10" height="18" width="18" x="35" y="7.02"/></g><rect class="cls-11" height="8" rx="1.6" ry="1.6" width="8" x="40" y="12.02"/><g class="cls-12"><rect class="cls-13" height="36" width="36" x="12" y="17.02"/></g><g class="cls-14"><rect class="cls-10" height="26" width="26" x="17" y="22.02"/></g><line class="cls-15" x1="10.5" x2="10.5" y1="13.52" y2="22.02"/><line class="cls-16" x1="13.5" x2="13.5" y1="13.52" y2="22.02"/><line class="cls-17" x1="16.5" x2="16.5" y1="13.52" y2="22.02"/><line class="cls-18" x1="19.5" x2="19.5" y1="13.52" y2="22.02"/></svg>
