<?xml version="1.0" ?><svg data-name="Layer 1" id="Layer_1" viewBox="0 0 60 60" xmlns="http://www.w3.org/2000/svg" xmlns:xlink="http://www.w3.org/1999/xlink"><defs><style>.cls-1{fill:none;clip-rule:evenodd;}.cls-2{clip-path:url(#clip-path);}.cls-3{fill:#646464;}</style><clipPath id="clip-path"><path class="cls-1" d="M10,49V18h7V49H10Zm3.33-34.73A4.06,4.06,0,0,1,9,10.17,4.09,4.09,0,0,1,13.43,6,4.13,4.13,0,1,1,13.33,14.29ZM45,33.15c0-3.79-2.94-6.8-6.22-6.8-2.5,0-4.72,0-6.19,3.17A10.8,10.8,0,0,0,32,32.65V49H24V18h8.26l0.41,4h0.18c1.19-1.92,3.91-4,8.8-4C47.65,18,53,22.7,53,31.35V49H45V33.15Z"/></clipPath></defs><title/><g class="cls-2"><rect class="cls-3" height="52.97" width="53.96" x="4.04" y="1.05"/></g></svg>
