<?xml version="1.0" ?><svg data-name="Layer 1" id="Layer_1" viewBox="0 0 60 60" xmlns="http://www.w3.org/2000/svg" xmlns:xlink="http://www.w3.org/1999/xlink"><defs><style>.cls-1{fill:none;clip-rule:evenodd;}.cls-2{clip-path:url(#clip-path);}.cls-3{fill:#646464;}</style><clipPath id="clip-path"><path class="cls-1" d="M49.71,17.29s4.08-.33,5.72-1.57c0,0-.39,1.43-5.3,5.94,0,0,1.65,24.37-23.53,30.33,0,0-12.77,2.77-22-4.29,0,0,9.69,1.75,15.14-4.37a9.91,9.91,0,0,1-9.25-7.21s2.65,0.58,4.23-.15A10.25,10.25,0,0,1,6.87,25.49S9,27.1,11,26.81c0,0-7.17-6.19-2.73-13.9,0,0,9.61,11.53,21.52,10.85a10.58,10.58,0,0,1-.32-2.59A10.31,10.31,0,0,1,39.67,10.78a10.14,10.14,0,0,1,7.3,3.1,11.61,11.61,0,0,0,7-2.26S54.09,13.85,49.71,17.29Z"/></clipPath></defs><title/><g class="cls-2"><rect class="cls-3" height="51.75" width="60.85" x="-0.43" y="5.78"/></g></svg>
